<svg xmlns="http://www.w3.org/2000/svg" viewBox="0 0 520 120" width="520" height="120">
  <defs>
    <marker id="arrow" viewBox="0 0 10 10" refX="8" refY="5" markerWidth="7" markerHeight="7" orient="auto">
      <path d="M 0 1 L 8 5 L 0 9 z" fill="#888"/>
    </marker>
  </defs>

  <!-- ===== HORIZONTAL ARROWS (two segments, gap for medallions) ===== -->
  <!-- Arrow: Rust files → Lean files, broken by medallions sitting on top -->
  <!-- Arrow 1: Rust → LLBC (x 72 to 170, length 98) -->
  <line x1="72" y1="62" x2="170" y2="62" stroke="#888" stroke-width="2" marker-end="url(#arrow)"/>
  <!-- Arrow 2: LLBC → Lean (x 230 to 328, length 98) -->
  <line x1="230" y1="62" x2="328" y2="62" stroke="#888" stroke-width="2" marker-end="url(#arrow)"/>

  <!-- ===== RUST SOURCE FILES ===== -->
  <g transform="translate(10, 22)">
    <rect x="8" y="0" width="44" height="56" rx="2" fill="#E8B48A" stroke="#B7472A" stroke-width="1"/>
    <polygon points="36,0 52,12 36,12" fill="#C96B3C" stroke="#B7472A" stroke-width="0.7"/>
  </g>
  <g transform="translate(5, 28)">
    <rect x="8" y="0" width="44" height="56" rx="2" fill="#E0A070" stroke="#B7472A" stroke-width="1"/>
    <polygon points="36,0 52,12 36,12" fill="#C06030" stroke="#B7472A" stroke-width="0.7"/>
  </g>
  <g transform="translate(0, 34)">
    <rect x="8" y="0" width="44" height="56" rx="2" fill="#DEA584" stroke="#B7472A" stroke-width="1"/>
    <polygon points="36,0 52,12 36,12" fill="#C96B3C" stroke="#B7472A" stroke-width="0.7"/>
    <!-- Official Rust logo: 144x144, scale 0.24 → 34.6px. File body starts at x=8, width=44. Center: x=8+(44-34.6)/2=12.7. Logo center at 71*0.24=17, so translate x=12.7-17+8=3.7 -->
    <!-- Vertically: file body h=56 minus 12 for corner = 44 usable from y=12. Center: y=12+(44-34.6)/2=16.7 -->
    <g transform="translate(12.7, 16.7) scale(0.24)">
      <path d="m71.05 23.68c-26.06 0-47.27 21.22-47.27 47.27s21.22 47.27 47.27 47.27 47.27-21.22 47.27-47.27-21.22-47.27-47.27-47.27zm-.07 4.2a3.1 3.11 0 0 1 3.02 3.11 3.11 3.11 0 0 1 -6.22 0 3.11 3.11 0 0 1 3.2-3.11zm7.12 5.12a38.27 38.27 0 0 1 26.2 18.66l-3.67 8.28c-.63 1.43.02 3.11 1.44 3.75l7.06 3.13a38.27 38.27 0 0 1 .08 6.64h-3.93c-.39 0-.55.26-.55.64v1.8c0 4.24-2.39 5.17-4.49 5.4-2 .23-4.21-.84-4.49-2.06-1.18-6.63-3.14-8.04-6.24-10.49 3.85-2.44 7.85-6.05 7.85-10.87 0-5.21-3.57-8.49-6-10.1-3.42-2.25-7.2-2.7-8.22-2.7h-40.6a38.27 38.27 0 0 1 21.41-12.08l4.79 5.02c1.08 1.13 2.87 1.18 4 .09zm-44.2 23.02a3.11 3.11 0 0 1 3.02 3.11 3.11 3.11 0 0 1 -6.22 0 3.11 3.11 0 0 1 3.2-3.11zm74.15.14a3.11 3.11 0 0 1 3.02 3.11 3.11 3.11 0 0 1 -6.22 0 3.11 3.11 0 0 1 3.2-3.11zm-68.29.5h5.42v24.44h-10.94a38.27 38.27 0 0 1 -1.24-14.61l6.7-2.98c1.43-.64 2.08-2.31 1.44-3.74zm22.62.26h12.91c.67 0 4.71.77 4.71 3.8 0 2.51-3.1 3.41-5.65 3.41h-11.98zm0 17.56h9.89c.9 0 4.83.26 6.08 5.28.39 1.54 1.26 6.56 1.85 8.17.59 1.8 2.98 5.4 5.53 5.4h16.14a38.27 38.27 0 0 1 -3.54 4.1l-6.57-1.41c-1.53-.33-3.04.65-3.37 2.18l-1.56 7.28a38.27 38.27 0 0 1 -31.91-.15l-1.56-7.28c-.33-1.53-1.83-2.51-3.36-2.18l-6.43 1.38a38.27 38.27 0 0 1 -3.32-3.92h31.27c.35 0 .59-.06.59-.39v-11.06c0-.32-.24-.39-.59-.39h-9.15zm-14.43 25.33a3.11 3.11 0 0 1 3.02 3.11 3.11 3.11 0 0 1 -6.22 0 3.11 3.11 0 0 1 3.2-3.11zm46.05.14a3.11 3.11 0 0 1 3.02 3.11 3.11 3.11 0 0 1 -6.22 0 3.11 3.11 0 0 1 3.2-3.11z" fill="#7A2E19"/>
      <path d="m115.68 70.95a44.63 44.63 0 0 1 -44.63 44.63 44.63 44.63 0 0 1 -44.63-44.63 44.63 44.63 0 0 1 44.63-44.63 44.63 44.63 0 0 1 44.63 44.63zm-.84-4.31 6.96 4.31-6.96 4.31 5.98 5.59-7.66 2.87 4.78 6.65-8.09 1.32 3.4 7.46-8.19-.29 1.88 7.98-7.98-1.88.29 8.19-7.46-3.4-1.32 8.09-6.65-4.78-2.87 7.66-5.59-5.98-4.31 6.96-4.31-6.96-5.59 5.98-2.87-7.66-6.65 4.78-1.32-8.09-7.46 3.4.29-8.19-7.98 1.88 1.88-7.98-8.19.29 3.4-7.46-8.09-1.32 4.78-6.65-7.66-2.87 5.98-5.59-6.96-4.31 6.96-4.31-5.98-5.59 7.66-2.87-4.78-6.65 8.09-1.32-3.4-7.46 8.19.29-1.88-7.98 7.98 1.88-.29-8.19 7.46 3.4 1.32-8.09 6.65 4.78 2.87-7.66 5.59 5.98 4.31-6.96 4.31 6.96 5.59-5.98 2.87 7.66 6.65-4.78 1.32 8.09 7.46-3.4-.29 8.19 7.98-1.88-1.88 7.98 8.19-.29-3.4 7.46 8.09 1.32-4.78 6.65 7.66 2.87z" fill-rule="evenodd" stroke="#7A2E19" stroke-linecap="round" stroke-linejoin="round" stroke-width="3" fill="none"/>
    </g>
  </g>
  <text x="33" y="112" text-anchor="middle" font-size="11" fill="#7A2E19" font-weight="bold" font-family="sans-serif">Rust source</text>

  <!-- ===== CHARON label above arrow 1 ===== -->
  <text x="121" y="56" text-anchor="middle" font-size="11" fill="#2B4C7E" font-weight="bold" font-family="sans-serif">Charon</text>

  <!-- ===== LLBC file icon centered between arrows ===== -->
  <g transform="translate(175, 20)">
    <rect x="0" y="0" width="50" height="68" rx="2" fill="#E8E8E8" stroke="#888" stroke-width="1.2"/>
    <polygon points="36,0 50,12 36,12" fill="#CCC" stroke="#888" stroke-width="0.7"/>
    <line x1="36" y1="0" x2="36" y2="12" stroke="#888" stroke-width="1"/>
    <line x1="36" y1="12" x2="50" y2="12" stroke="#888" stroke-width="1"/>
    <text x="25" y="11" text-anchor="middle" font-size="7" fill="#666" font-family="monospace" font-weight="bold">.llbc</text>
    <g fill="#999" opacity="0.5">
      <rect x="4" y="17" width="40" height="1.3" rx="0.4"/>
      <rect x="4" y="20.5" width="40" height="1.3" rx="0.4"/>
      <rect x="4" y="24" width="40" height="1.3" rx="0.4"/>
      <rect x="4" y="27.5" width="40" height="1.3" rx="0.4"/>
      <rect x="4" y="31" width="40" height="1.3" rx="0.4"/>
      <rect x="4" y="34.5" width="40" height="1.3" rx="0.4"/>
      <rect x="4" y="38" width="40" height="1.3" rx="0.4"/>
      <rect x="4" y="41.5" width="40" height="1.3" rx="0.4"/>
      <rect x="4" y="45" width="40" height="1.3" rx="0.4"/>
      <rect x="4" y="48.5" width="40" height="1.3" rx="0.4"/>
      <rect x="4" y="52" width="40" height="1.3" rx="0.4"/>
      <rect x="4" y="55.5" width="40" height="1.3" rx="0.4"/>
      <rect x="4" y="59" width="40" height="1.3" rx="0.4"/>
      <rect x="4" y="62.5" width="40" height="1.3" rx="0.4"/>
    </g>
  </g>
  <text x="200" y="108" text-anchor="middle" font-size="11" fill="#666" font-weight="bold" font-family="sans-serif">LLBC</text>

  <!-- ===== AENEAS label above arrow 2 ===== -->
  <text x="279" y="56" text-anchor="middle" font-size="11" fill="#5A3D8E" font-weight="bold" font-family="sans-serif">Aeneas</text>

  <!-- ===== LEAN OUTPUT FILES ===== -->
  <g transform="translate(336, 22)">
    <rect x="0" y="0" width="44" height="56" rx="2" fill="#C5D5E4" stroke="#2B4C7E" stroke-width="1"/>
    <polygon points="30,0 44,12 30,12" fill="#8BABC4" stroke="#2B4C7E" stroke-width="0.7"/>
    <line x1="30" y1="0" x2="30" y2="12" stroke="#2B4C7E" stroke-width="1"/>
    <line x1="30" y1="12" x2="44" y2="12" stroke="#2B4C7E" stroke-width="1"/>
    <!-- Lean logo: original spans x=246..2007 (w=1761), y=149..752 (h=603). Scale 0.02 → 35x12. Center on 44px-wide file: offset x=(44-35)/2 - 246*0.02 = -0.4 -->
    <g transform="translate(-0.4, 14) scale(0.02)">
      <path d="M1517.43 741.036V213.551L1408.86 454.997C1408.84 455.039 1408.83 455.083 1408.81 455.125L1274.87 743.167C1273.07 747.025 1269.21 749.498 1264.96 749.509L1260.49 749.52C1256.21 749.53 1252.31 747.042 1250.51 743.153L1117.49 455.15L1003.5 211.702V738.556C1003.5 744.611 998.589 749.52 992.536 749.52H256.961C250.908 749.52 246.001 744.611 246 738.556V159.964C246 153.909 250.907 149 256.961 149C263.014 149 267.921 153.909 267.921 159.964V727.592H981.576V461.464H624.75C618.697 461.464 613.79 456.555 613.79 450.5C613.79 444.445 618.697 439.536 624.75 439.536H981.576V173.411H624.75C618.697 173.411 613.79 168.502 613.79 162.448C613.79 156.393 618.697 151.484 624.75 151.484H992.536L993.328 151.513C997.264 151.797 1000.77 154.185 1002.46 157.797L1134.38 439.536H1391.78L1518.39 157.951C1520.16 154.015 1524.07 151.484 1528.39 151.484H1530.82C1534.15 151.484 1537.29 152.993 1539.37 155.585L1985.08 710.904V159.964C1985.08 153.909 1989.99 149 1996.04 149C2002.09 149 2007 153.909 2007 159.964V739.041C2007 745.096 2002.09 750.005 1996.04 750.005H1993.6C1990.28 750.005 1987.14 748.496 1985.06 745.904L1539.35 190.581V741.036C1539.35 747.091 1534.44 752 1528.39 752C1522.33 752 1517.43 747.091 1517.43 741.036ZM1262.72 717.296L1381.68 461.464H1144.55L1262.72 717.296Z" fill="#2B4C7E"/>
    </g>
    <text x="22" y="50" text-anchor="middle" font-size="8" font-weight="bold" fill="#2B4C7E" font-family="sans-serif">Funs.lean</text>
  </g>
  <g transform="translate(388, 28)">
    <rect x="0" y="0" width="36" height="48" rx="2" fill="#D0DDE8" stroke="#2B4C7E" stroke-width="1"/>
    <polygon points="24,0 36,10 24,10" fill="#9BB8CC" stroke="#2B4C7E" stroke-width="0.7"/>
    <line x1="24" y1="0" x2="24" y2="10" stroke="#2B4C7E" stroke-width="1"/>
    <line x1="24" y1="10" x2="36" y2="10" stroke="#2B4C7E" stroke-width="1"/>
    <!-- Lean logo: scale 0.016 → 28x9.6. Center on 36px-wide file: offset x=(36-28)/2 - 246*0.016 = 0.06 -->
    <g transform="translate(0.06, 12) scale(0.016)">
      <path d="M1517.43 741.036V213.551L1408.86 454.997C1408.84 455.039 1408.83 455.083 1408.81 455.125L1274.87 743.167C1273.07 747.025 1269.21 749.498 1264.96 749.509L1260.49 749.52C1256.21 749.53 1252.31 747.042 1250.51 743.153L1117.49 455.15L1003.5 211.702V738.556C1003.5 744.611 998.589 749.52 992.536 749.52H256.961C250.908 749.52 246.001 744.611 246 738.556V159.964C246 153.909 250.907 149 256.961 149C263.014 149 267.921 153.909 267.921 159.964V727.592H981.576V461.464H624.75C618.697 461.464 613.79 456.555 613.79 450.5C613.79 444.445 618.697 439.536 624.75 439.536H981.576V173.411H624.75C618.697 173.411 613.79 168.502 613.79 162.448C613.79 156.393 618.697 151.484 624.75 151.484H992.536L993.328 151.513C997.264 151.797 1000.77 154.185 1002.46 157.797L1134.38 439.536H1391.78L1518.39 157.951C1520.16 154.015 1524.07 151.484 1528.39 151.484H1530.82C1534.15 151.484 1537.29 152.993 1539.37 155.585L1985.08 710.904V159.964C1985.08 153.909 1989.99 149 1996.04 149C2002.09 149 2007 153.909 2007 159.964V739.041C2007 745.096 2002.09 750.005 1996.04 750.005H1993.6C1990.28 750.005 1987.14 748.496 1985.06 745.904L1539.35 190.581V741.036C1539.35 747.091 1534.44 752 1528.39 752C1522.33 752 1517.43 747.091 1517.43 741.036ZM1262.72 717.296L1381.68 461.464H1144.55L1262.72 717.296Z" fill="#3B6FA0"/>
    </g>
    <text x="18" y="42" text-anchor="middle" font-size="7" font-weight="bold" fill="#3B6FA0" font-family="sans-serif">Types.lean</text>
  </g>
  <text x="374" y="108" text-anchor="middle" font-size="11" fill="#2B4C7E" font-weight="bold" font-family="sans-serif">Lean model</text>

</svg>
